<?xml version="1.0" standalone="no"?>
<svg xmlns="http://www.w3.org/2000/svg" viewBox="0 0 94 64" width="94" height="64"><g fill="#6f4e37" color="#6f4e37" transform="translate(31.025 0) scale(0.31) "><svg width="99.998" height="100.0" x="0.0" y="0.0" viewBox="0 0 99.998 100"><path fill="currentColor" d="M83.999,71.808l-2.939-0.001l0.004-5.879l2.938,0.001c2.431,0,4.41-1.979,4.41-4.411V49.759  c0-2.432-1.979-4.411-4.412-4.411H81.06v-5.879h2.939c5.675,0,10.291,4.617,10.291,10.29v11.759  C94.29,67.191,89.674,71.808,83.999,71.808L83.999,71.808z"></path><path fill="currentColor" d="M0,92.65C0,96.713,3.262,100,7.294,100h85.409c4.032,0,7.295-3.287,7.295-7.35H0z"></path><path fill="currentColor" d="M42.542,10.74c3.299,9.899-5.228,12.54-5.228,12.54l-0.039,0.061c0.086-0.144,2.065-3.614-0.311-10.742  C33.665,2.7,42.192,0.06,42.192,0.06L42.231,0C42.144,0.143,40.167,3.615,42.542,10.74z"></path><path fill="currentColor" d="M52.787,10.74c3.298,9.899-5.228,12.54-5.228,12.54l-0.039,0.061c0.085-0.144,2.064-3.614-0.311-10.742  C43.909,2.7,52.438,0.06,52.438,0.06L52.478,0C52.39,0.143,50.412,3.615,52.787,10.74z"></path><path fill="currentColor" d="M63.032,10.74c3.299,9.899-5.227,12.54-5.227,12.54l-0.039,0.061c0.085-0.144,2.064-3.614-0.311-10.742  C54.156,2.7,62.684,0.06,62.684,0.06L62.723,0C62.636,0.143,60.658,3.615,63.032,10.74z"></path><path fill="currentColor" d="M22.069,29.18v47.038c0,6.5,5.26,11.759,11.759,11.759h32.34c6.499,0,11.759-5.259,11.759-11.759V29.18  H22.069z M69.107,74.748c0,0.811-0.659,1.47-1.47,1.47c-0.813,0-1.47-0.659-1.47-1.47V36.529c0-0.811,0.656-1.47,1.47-1.47  c0.811,0,1.47,0.659,1.47,1.47V74.748z"></path></svg></g><line x1="31.954291400000002" y1="37" x2="61.0937086" y2="37" stroke="#654a35" stroke-linecap="round"></line><path fill="#654a35" fill-rule="nonzero" d="M5.02 20.74Q4.13 20.74 3.46 20.59Q2.78 20.45 2.29 19.90Q1.80 19.34 1.80 18.19L1.80 18.19Q1.80 16.58 2.77 13.87Q3.74 11.16 5.33 8.42L5.33 8.42Q4.13 8.50 3.43 8.78Q2.74 9.07 2.52 9.67L2.52 9.67Q2.62 9.67 2.72 9.91Q2.83 10.15 2.83 10.42L2.83 10.42Q2.83 10.85 2.45 11.10Q2.06 11.35 1.49 11.35L1.49 11.35Q0.82 11.35 0.41 10.99Q0 10.63 0 9.96L0 9.96Q0 9.14 0.64 8.47Q1.27 7.80 2.40 7.40Q3.53 7.01 4.90 7.01L4.90 7.01Q5.40 7.01 6.14 7.08L6.14 7.08Q8.11 3.96 10.31 1.98Q12.50 0 14.50 0L14.50 0Q15.65 0 16.39 0.34L16.39 0.34L12.62 18L9.17 18L11.02 9.29Q10.13 8.88 9.38 8.69Q8.64 8.50 7.80 8.42L7.80 8.42Q6.43 11.38 5.56 14.46Q4.68 17.54 4.68 19.39L4.68 19.39Q4.68 20.30 5.02 20.74L5.02 20.74ZM11.23 8.23L12.62 1.70Q11.59 2.26 10.48 3.76Q9.36 5.26 8.30 7.39L8.30 7.39Q10.03 7.73 11.23 8.23L11.23 8.23ZM18.19 18.14Q17.04 18.14 16.33 17.42Q15.62 16.70 15.62 15.26L15.62 15.26Q15.62 14.66 15.82 13.70L15.82 13.70L18.38 1.68L21.94 1.20L19.18 14.16Q19.08 14.52 19.08 14.93L19.08 14.93Q19.08 15.41 19.31 15.61Q19.54 15.82 20.06 15.82L20.06 15.82Q20.76 15.82 21.36 15.23Q21.96 14.64 22.22 13.70L22.22 13.70L23.23 13.70Q22.34 16.30 20.95 17.22Q19.56 18.14 18.19 18.14L18.19 18.14ZM24.96 18.14Q23.81 18.14 23.02 17.70Q22.22 17.26 21.84 16.55Q21.46 15.84 21.46 15.07L21.46 15.07Q21.46 14.28 21.83 13.69Q22.20 13.10 22.73 12.84L22.73 12.84Q23.66 11.16 24.36 9.44Q25.06 7.73 25.68 5.74L25.68 5.74L29.23 5.26Q29.35 8.33 29.64 11.90L29.64 11.90Q29.76 13.34 29.76 13.99L29.76 13.99Q29.76 14.54 29.66 14.90L29.66 14.90Q30.79 14.26 31.39 13.70L31.39 13.70L32.40 13.70Q30.86 15.48 28.73 16.70L28.73 16.70Q28.03 17.45 27.01 17.80Q25.99 18.14 24.96 18.14L24.96 18.14ZM24.19 16.25Q25.08 16.25 25.68 15.72Q26.28 15.19 26.28 14.02L26.28 14.02Q26.28 13.30 26.14 12L26.14 12Q25.90 9.26 25.82 8.33L25.82 8.33Q25.25 10.22 23.88 12.86L23.88 12.86Q24.43 13.15 24.43 13.70L24.43 13.70Q24.43 14.16 24.13 14.52Q23.83 14.88 23.38 14.88L23.38 14.88Q22.87 14.88 22.73 14.57L22.73 14.57Q22.73 15.43 23.08 15.84Q23.42 16.25 24.19 16.25L24.19 16.25ZM34.27 18.14Q32.90 18.14 31.99 17.21Q31.08 16.27 31.08 14.28L31.08 14.28Q31.08 12.50 31.79 10.55Q32.50 8.59 33.90 7.24Q35.30 5.88 37.25 5.88L37.25 5.88Q38.23 5.88 38.71 6.22Q39.19 6.55 39.19 7.10L39.19 7.10L39.19 7.27L39.46 6L42.91 6L41.18 14.16Q41.09 14.52 41.09 14.93L41.09 14.93Q41.09 15.96 42.07 15.96L42.07 15.96Q42.74 15.96 43.24 15.34Q43.73 14.71 44.02 13.70L44.02 13.70L45.02 13.70Q44.14 16.30 42.83 17.22Q41.52 18.14 40.20 18.14L40.20 18.14Q39.19 18.14 38.58 17.58Q37.97 17.02 37.85 15.94L37.85 15.94Q37.15 16.92 36.30 17.53Q35.45 18.14 34.27 18.14L34.27 18.14ZM35.83 15.82Q36.43 15.82 37.02 15.25Q37.61 14.69 37.82 13.70L37.82 13.70L38.98 8.28Q38.98 7.97 38.74 7.67Q38.50 7.37 37.99 7.37L37.99 7.37Q37.03 7.37 36.26 8.48Q35.50 9.60 35.06 11.17Q34.63 12.74 34.63 13.94L34.63 13.94Q34.63 15.14 34.98 15.48Q35.33 15.82 35.83 15.82L35.83 15.82ZM47.21 18.14Q45.58 18.14 44.71 17.34Q43.85 16.54 43.85 15.07L43.85 15.07Q43.85 14.35 44.02 13.70L44.02 13.70L46.58 1.68L50.14 1.20L48.98 6.60Q49.66 6.19 50.09 6.06Q50.52 5.93 50.95 5.93L50.95 5.93Q53.78 5.93 53.78 10.03L53.78 10.03Q53.78 11.69 53.15 13.57Q52.51 15.46 51.04 16.80Q49.56 18.14 47.21 18.14L47.21 18.14ZM48.55 15.82Q49.30 15.82 49.94 14.89Q50.59 13.97 50.98 12.59Q51.36 11.21 51.36 9.94L51.36 9.94Q51.36 8.98 51.02 8.30Q50.69 7.63 50.09 7.63L50.09 7.63Q49.73 7.63 49.28 7.74Q48.84 7.85 48.67 8.06L48.67 8.06L47.35 14.16Q47.28 14.45 47.28 14.71L47.28 14.71Q47.28 15.82 48.55 15.82L48.55 15.82ZM57.55 18.14Q56.18 18.14 55.27 17.21Q54.36 16.27 54.36 14.28L54.36 14.28Q54.36 12.50 55.07 10.55Q55.78 8.59 57.18 7.24Q58.58 5.88 60.53 5.88L60.53 5.88Q61.51 5.88 61.99 6.22Q62.47 6.55 62.47 7.10L62.47 7.10L62.47 7.27L62.74 6L66.19 6L64.46 14.16Q64.37 14.52 64.37 14.93L64.37 14.93Q64.37 15.96 65.35 15.96L65.35 15.96Q66.02 15.96 66.52 15.34Q67.01 14.71 67.30 13.70L67.30 13.70L68.30 13.70Q67.42 16.30 66.11 17.22Q64.80 18.14 63.48 18.14L63.48 18.14Q62.47 18.14 61.86 17.58Q61.25 17.02 61.13 15.94L61.13 15.94Q60.43 16.92 59.58 17.53Q58.73 18.14 57.55 18.14L57.55 18.14ZM59.11 15.82Q59.71 15.82 60.30 15.25Q60.89 14.69 61.10 13.70L61.10 13.70L62.26 8.28Q62.26 7.97 62.02 7.67Q61.78 7.37 61.27 7.37L61.27 7.37Q60.31 7.37 59.54 8.48Q58.78 9.60 58.34 11.17Q57.91 12.74 57.91 13.94L57.91 13.94Q57.91 15.14 58.26 15.48Q58.61 15.82 59.11 15.82L59.11 15.82ZM70.18 18.14Q68.81 18.14 67.90 17.21Q66.98 16.27 66.98 14.28L66.98 14.28Q66.98 12.50 67.69 10.55Q68.40 8.59 69.80 7.24Q71.21 5.88 73.15 5.88L73.15 5.88Q74.14 5.88 74.62 6.22Q75.10 6.55 75.10 7.10L75.10 7.10L75.10 7.27L75.36 6L78.82 6L77.09 14.16Q76.99 14.52 76.99 14.93L76.99 14.93Q76.99 15.96 77.98 15.96L77.98 15.96Q78.65 15.96 79.14 15.34Q79.63 14.71 79.92 13.70L79.92 13.70L80.93 13.70Q80.04 16.30 78.73 17.22Q77.42 18.14 76.10 18.14L76.10 18.14Q75.10 18.14 74.48 17.58Q73.87 17.02 73.75 15.94L73.75 15.94Q73.06 16.92 72.20 17.53Q71.35 18.14 70.18 18.14L70.18 18.14ZM71.74 15.82Q72.34 15.82 72.92 15.25Q73.51 14.69 73.73 13.70L73.73 13.70L74.88 8.28Q74.88 7.97 74.64 7.67Q74.40 7.37 73.90 7.37L73.90 7.37Q72.94 7.37 72.17 8.48Q71.40 9.60 70.97 11.17Q70.54 12.74 70.54 13.94L70.54 13.94Q70.54 15.14 70.88 15.48Q71.23 15.82 71.74 15.82L71.74 15.82ZM88.58 18.14Q87.12 18.14 86.44 17.36Q85.75 16.58 85.75 15.43L85.75 15.43Q85.75 14.93 85.87 14.29Q85.99 13.66 86.12 13.06Q86.26 12.46 86.30 12.29L86.30 12.29Q86.50 11.45 86.66 10.63Q86.83 9.82 86.83 9.31L86.83 9.31Q86.83 8.09 85.97 8.09L85.97 8.09Q85.34 8.09 84.86 8.70Q84.38 9.31 84.10 10.30L84.10 10.30L82.46 18L79.01 18L82.49 1.68L86.04 1.20L84.74 7.25Q85.94 5.90 87.55 5.90L87.55 5.90Q88.78 5.90 89.50 6.58Q90.22 7.25 90.22 8.62L90.22 8.62Q90.22 9.31 90.05 10.16Q89.88 11.02 89.57 12.24L89.57 12.24Q89.38 12.98 89.22 13.69Q89.06 14.40 89.06 14.81L89.06 14.81Q89.06 15.29 89.28 15.55Q89.50 15.82 90.02 15.82L90.02 15.82Q90.74 15.82 91.18 15.30Q91.61 14.78 92.04 13.70L92.04 13.70L93.05 13.70Q92.16 16.34 91.00 17.24Q89.83 18.14 88.58 18.14L88.58 18.14Z" transform="translate(0, 43)"></path></svg>